<?xml version="1.0" encoding="UTF-8"?>
<svg id="Layer_2" data-name="Layer 2" xmlns="http://www.w3.org/2000/svg" viewBox="0 0 1341.66 370.99">
  <defs>
    <style>
      .cls-1 {
        fill: #1A5F7A;
      }
    </style>
  </defs>
  <g id="Layer_1-2" data-name="Layer 1">
    <path class="cls-1" d="M451.83,173.73h94.1v5.83c0,21.31-3.85,39.32-11.54,54.03-7.7,14.71-18.35,25.83-31.96,33.35-13.61,7.53-29.3,11.29-47.05,11.29-13.19,0-25.49-2.41-36.91-7.23-11.41-4.82-21.35-11.45-29.8-19.91-8.46-8.45-15.09-18.26-19.91-29.42-4.82-11.16-7.23-23.25-7.23-36.27s2.45-25.32,7.36-36.4c4.9-11.07,11.75-20.8,20.55-29.17,8.79-8.37,18.98-14.92,30.56-19.66,11.58-4.73,24.05-7.1,37.41-7.1,15.38,0,29.42,2.83,42.1,8.5,12.68,5.67,23.16,13.4,31.45,23.21l-27.39,27.39c-5.58-7.44-12.3-13.06-20.16-16.87-7.86-3.8-16.61-5.71-26.25-5.71-10.49,0-19.87,2.33-28.16,6.97-8.29,4.65-14.75,11.16-19.4,19.53-4.65,8.37-6.97,18.14-6.97,29.3s2.28,20.72,6.85,29.17c4.57,8.46,10.82,15.09,18.77,19.91,7.95,4.82,17.08,7.23,27.39,7.23s19.15-1.99,26.51-5.96c7.36-3.97,13.02-9.77,16.99-17.37,1.62-3.11,2.91-6.48,3.87-10.09l-51.17-.81v-33.73ZM656.05,151.92h38.3v123.27h-38.3v-9.99c-3.24,3.07-7,5.65-11.29,7.71-6.68,3.21-14.25,4.82-22.7,4.82-11.16,0-21.22-2.83-30.18-8.5-8.96-5.66-16.02-13.27-21.18-22.83-5.16-9.55-7.74-20.5-7.74-32.85s2.58-23.38,7.74-33.1c5.16-9.72,12.17-17.33,21.05-22.83,8.88-5.49,18.98-8.24,30.31-8.24,8.28,0,15.77,1.61,22.45,4.82,4.38,2.11,8.22,4.75,11.54,7.91v-10.19ZM650.09,234.35c4.99-5.41,7.48-12.43,7.48-21.05,0-5.58-1.1-10.53-3.3-14.84-2.2-4.31-5.41-7.69-9.64-10.15-4.23-2.45-9.05-3.68-14.46-3.68s-9.94,1.23-14.08,3.68c-4.15,2.45-7.44,5.88-9.89,10.27-2.45,4.4-3.68,9.39-3.68,14.97s1.22,10.57,3.68,14.97c2.45,4.4,5.75,7.82,9.89,10.27,4.14,2.45,8.83,3.68,14.08,3.68,8.28,0,14.92-2.7,19.91-8.12ZM884.32,155.34c-7.44-3.97-15.81-5.96-25.11-5.96s-18.35,2.03-26.13,6.09c-5.23,2.73-9.73,6.27-13.51,10.6-3.54-4.41-7.78-8.04-12.74-10.86-6.85-3.89-14.5-5.83-22.96-5.83-9.3,0-17.55,1.9-24.73,5.71-3.21,1.7-6.12,3.74-8.75,6.08v-9.25h-39.06v123.27h39.06v-72.04c0-4.06.89-7.52,2.66-10.4,1.78-2.87,4.19-5.11,7.23-6.72,3.04-1.61,6.51-2.41,10.4-2.41,5.58,0,10.27,1.74,14.08,5.2,3.8,3.47,5.71,8.24,5.71,14.33v72.04h39.06v-72.04c0-4.06.84-7.52,2.54-10.4,1.69-2.87,4.1-5.11,7.23-6.72,3.13-1.61,6.55-2.41,10.27-2.41,5.41,0,10.02,1.74,13.82,5.2,3.8,3.47,5.71,8.24,5.71,14.33v72.04h39.06v-76.6c0-10.31-2.12-19.11-6.34-26.38-4.23-7.27-10.06-12.89-17.5-16.87ZM1018.24,151.92h38.3v123.27h-38.3v-9.99c-3.24,3.07-7,5.65-11.29,7.71-6.68,3.21-14.25,4.82-22.7,4.82-11.16,0-21.22-2.83-30.18-8.5-8.96-5.66-16.02-13.27-21.18-22.83-5.16-9.55-7.74-20.5-7.74-32.85s2.58-23.38,7.74-33.1c5.16-9.72,12.17-17.33,21.05-22.83,8.88-5.49,18.98-8.24,30.31-8.24,8.28,0,15.77,1.61,22.45,4.82,4.38,2.11,8.22,4.75,11.54,7.91v-10.19ZM1012.28,234.35c4.99-5.41,7.48-12.43,7.48-21.05,0-5.58-1.1-10.53-3.3-14.84-2.2-4.31-5.41-7.69-9.64-10.15-4.23-2.45-9.05-3.68-14.46-3.68s-9.94,1.23-14.08,3.68c-4.15,2.45-7.44,5.88-9.89,10.27-2.45,4.4-3.68,9.39-3.68,14.97s1.22,10.57,3.68,14.97c2.45,4.4,5.75,7.82,9.89,10.27,4.14,2.45,8.83,3.68,14.08,3.68,8.28,0,14.92-2.7,19.91-8.12ZM1170.71,155.72c-7.1-4.22-15.14-6.34-24.1-6.34-9.47,0-17.97,1.99-25.49,5.96-3.43,1.81-6.5,3.98-9.26,6.47v-9.89h-39.06v123.27h39.06v-70.26c0-4.22.93-7.95,2.79-11.16,1.86-3.21,4.39-5.71,7.61-7.48,3.21-1.78,6.85-2.66,10.91-2.66,6.09,0,11.16,1.99,15.22,5.96,4.06,3.97,6.09,9.09,6.09,15.35v70.26h39.06v-78.88c0-8.45-2.03-16.27-6.09-23.46-4.06-7.19-9.64-12.89-16.74-17.12ZM1341.66,151.92v123.27h-38.3v-9.99c-3.24,3.07-7,5.65-11.29,7.71-6.68,3.21-14.25,4.82-22.7,4.82-11.16,0-21.22-2.83-30.18-8.5-8.96-5.66-16.02-13.27-21.18-22.83-5.16-9.55-7.74-20.5-7.74-32.85s2.58-23.38,7.74-33.1c5.16-9.72,12.17-17.33,21.05-22.83,8.88-5.49,18.98-8.24,30.31-8.24,8.28,0,15.77,1.61,22.45,4.82,4.38,2.11,8.22,4.75,11.54,7.91v-10.19h38.3ZM1297.4,234.35c4.99-5.41,7.48-12.43,7.48-21.05,0-5.58-1.1-10.53-3.3-14.84-2.2-4.31-5.41-7.69-9.64-10.15-4.23-2.45-9.05-3.68-14.46-3.68s-9.94,1.23-14.08,3.68c-4.15,2.45-7.44,5.88-9.89,10.27-2.45,4.4-3.68,9.39-3.68,14.97s1.22,10.57,3.68,14.97c2.45,4.4,5.75,7.82,9.89,10.27,4.14,2.45,8.83,3.68,14.08,3.68,8.28,0,14.92-2.7,19.91-8.12ZM328.7,151.79c0,11.45-2.26,24.01-6.73,37.31-1.76,5.25-6.66,8.57-11.91,8.57-1.32,0-2.67-.21-3.99-.66l-23.82-7.99c-6.58-2.2-10.12-9.32-7.92-15.9,2.73-8.15,4.12-15.33,4.12-21.34,0-9.58-1.18-19.09-3.52-28.27-1.66-6.51,2.13-13.08,8.47-15.05-17.99-49.64-65.28-83.34-119.05-83.34S63.29,58.83,45.3,108.47c6.34,1.97,10.12,8.54,8.47,15.05-2.34,9.18-3.52,18.69-3.52,28.27,0,6.01,1.38,13.18,4.12,21.33,2.21,6.58-1.34,13.7-7.92,15.9l-23.82,7.99c-1.32.44-2.67.65-4,.65-5.25,0-10.15-3.32-11.91-8.57-4.47-13.3-6.73-25.85-6.73-37.31,0-13.76,1.71-27.44,5.07-40.66,1.71-6.72,8.55-10.78,15.27-9.07l.51.13C41.78,41.43,99.09,0,164.35,0s122.57,41.43,143.49,102.18l.51-.13c6.72-1.7,13.56,2.35,15.27,9.07,3.37,13.22,5.07,26.9,5.07,40.67ZM275.54,201.78c-2.38,4.59-5,9.23-7.77,13.88-22.62,33.22-60.74,55.03-103.96,55.03-39.5,0-74.73-18.24-97.77-46.73-4.73-7.43-9.08-14.86-12.88-22.18l-1.16.6-21.13,10.97c37.65,72.49,121.38,150.96,124.92,154.26,2.41,2.25,5.49,3.37,8.56,3.37s6.15-1.12,8.56-3.37c3.55-3.3,87.28-81.76,124.92-154.26l-21.98-11.41-.32-.16ZM268.35,153.66v-17.27c0-.83-1.55-1.5-3.46-1.5s-3.45.67-3.45,1.5v17.27c0,.83,1.54,1.5,3.45,1.5s3.46-.67,3.46-1.5ZM250.07,155.61v-21.17c0-1.43-1.55-2.59-3.46-2.59s-3.46,1.17-3.46,2.59v21.17c0,1.43,1.55,2.59,3.46,2.59s3.46-1.17,3.46-2.59ZM231.79,161.74v-33.42c0-1.43-1.55-2.59-3.46-2.59s-3.45,1.17-3.45,2.59v33.42c0,1.43,1.54,2.59,3.45,2.59s3.46-1.16,3.46-2.59ZM213.5,176.35v-62.65c0-1.43-1.55-2.59-3.46-2.59s-3.46,1.16-3.46,2.59v62.65c0,1.43,1.55,2.59,3.46,2.59s3.46-1.16,3.46-2.59ZM195.22,187.64v-85.24c0-1.43-1.55-2.59-3.46-2.59s-3.45,1.16-3.45,2.59v85.24c0,1.43,1.54,2.59,3.45,2.59s3.46-1.17,3.46-2.59ZM176.94,199.17v-108.29c0-1.43-1.54-2.59-3.45-2.59s-3.46,1.16-3.46,2.59v108.29c0,1.43,1.54,2.59,3.46,2.59s3.45-1.16,3.45-2.59ZM158.66,207.09v-124.13c0-1.43-1.55-2.59-3.46-2.59s-3.46,1.16-3.46,2.59v124.13c0,1.43,1.55,2.59,3.46,2.59s3.46-1.16,3.46-2.59ZM140.38,193.9v-97.75c0-1.43-1.54-2.59-3.46-2.59s-3.45,1.17-3.45,2.59v97.75c0,1.43,1.54,2.59,3.45,2.59s3.46-1.17,3.46-2.59ZM122.1,182v-73.95c0-1.43-1.55-2.59-3.46-2.59s-3.46,1.17-3.46,2.59v73.95c0,1.43,1.55,2.59,3.46,2.59s3.46-1.17,3.46-2.59ZM103.81,172.79v-55.54c0-1.43-1.55-2.59-3.46-2.59s-3.45,1.17-3.45,2.59v55.54c0,1.43,1.54,2.59,3.45,2.59s3.46-1.17,3.46-2.59ZM85.53,166.31v-42.58c0-1.43-1.54-2.59-3.45-2.59s-3.46,1.16-3.46,2.59v42.58c0,1.43,1.55,2.59,3.46,2.59s3.45-1.16,3.45-2.59ZM67.26,158.81v-27.58c0-1.43-1.55-2.59-3.46-2.59s-3.46,1.16-3.46,2.59v27.58c0,1.43,1.55,2.59,3.46,2.59s3.46-1.16,3.46-2.59Z"/>
  </g>
</svg>